HIERARCHY
ROOT Hips
{
    OFFSET 0.000000 0.000000 0.000000
    CHANNELS 6 Xposition Yposition Zposition Zrotation Xrotation Yrotation
    JOINT Spine
    {
        OFFSET -0.000000 0.081343 0.000000
        CHANNELS 3 Zrotation Xrotation Yrotation
        JOINT Spine1
        {
            OFFSET -0.000000 0.243280 0.000000
            CHANNELS 3 Zrotation Xrotation Yrotation
            JOINT Neck
            {
                OFFSET -0.000000 0.242281 0.022026
                CHANNELS 3 Zrotation Xrotation Yrotation
                JOINT Head
                {
                    OFFSET -0.000000 0.149025 -0.021289
                    CHANNELS 3 Zrotation Xrotation Yrotation
                    End Site
                    {
                        OFFSET -0.000000 0.198396 0.000000
                    }
                }
            }
            JOINT LeftShoulder
            {
                OFFSET 0.039707 0.224479 -0.002125
                CHANNELS 3 Zrotation Xrotation Yrotation
                JOINT LeftArm
                {
                    OFFSET 0.116942 0.000000 0.000000
                    CHANNELS 3 Zrotation Xrotation Yrotation
                    JOINT LeftForeArm
                    {
                        OFFSET 0.282002 0.000000 0.000000
                        CHANNELS 3 Zrotation Xrotation Yrotation
                        JOINT LeftHand
                        {
                            OFFSET 0.358743 0.000000 0.000000
                            CHANNELS 3 Zrotation Xrotation Yrotation
                            End Site
                            {
                                OFFSET 0.148797 0.000000 0.000000
                            }
                        }
                    }
                }
            }
            JOINT RightShoulder
            {
                OFFSET -0.039404 0.224479 -0.002125
                CHANNELS 3 Zrotation Xrotation Yrotation
                JOINT RightArm
                {
                    OFFSET -0.116942 0.000000 0.000000
                    CHANNELS 3 Zrotation Xrotation Yrotation
                    JOINT RightForeArm
                    {
                        OFFSET -0.282002 0.000000 0.000000
                        CHANNELS 3 Zrotation Xrotation Yrotation
                        JOINT RightHand
                        {
                            OFFSET -0.358743 0.000000 0.000000
                            CHANNELS 3 Zrotation Xrotation Yrotation
                            End Site
                            {
                                OFFSET -0.148797 0.000000 0.000000
                            }
                        }
                    }
                }
            }
        }
    }
    JOINT LeftUpLeg
    {
        OFFSET 0.099198 0.000000 0.000000
        CHANNELS 3 Zrotation Xrotation Yrotation
        JOINT LeftLeg
        {
            OFFSET -0.000000 -0.332973 0.000000
            CHANNELS 3 Zrotation Xrotation Yrotation
            JOINT LeftFoot
            {
                OFFSET -0.000000 -0.491254 0.000000
                CHANNELS 3 Zrotation Xrotation Yrotation
                JOINT LeftToeBase
                {
                    OFFSET -0.000000 -0.064479 0.148797
                    CHANNELS 3 Zrotation Xrotation Yrotation
                    End Site
                    {
                        OFFSET -0.000000 0.000000 0.039679
                    }
                }
            }
        }
    }
    JOINT RightUpLeg
    {
        OFFSET -0.099198 0.000000 0.000000
        CHANNELS 3 Zrotation Xrotation Yrotation
        JOINT RightLeg
        {
            OFFSET -0.000000 -0.332973 0.000000
            CHANNELS 3 Zrotation Xrotation Yrotation
            JOINT RightFoot
            {
                OFFSET -0.000000 -0.491254 0.000000
                CHANNELS 3 Zrotation Xrotation Yrotation
                JOINT RightToeBase
                {
                    OFFSET -0.000000 -0.064479 0.148797
                    CHANNELS 3 Zrotation Xrotation Yrotation
                    End Site
                    {
                        OFFSET -0.000000 0.000000 0.039679
                    }
                }
            }
        }
    }
}
MOTION
Frames:    4
Frame Time:    0.010000
-0.468836    0.845707    0.241403    -3.939341    -1.256485    -53.912182    -0.857305    3.174750    -7.487411    -4.929432    11.617841    -2.003066    12.515781    11.696266    14.948864    -5.768034    -22.263771    13.118420    -6.182745    20.645992    -10.546402    -17.930372    20.163532    -31.261454    51.480862    3.415596    -62.232124    62.652477    21.292786    -25.617060    3.884692    22.150074    11.672997    33.030109    40.390957    10.394912    1.472829    -5.293843    75.634300    41.634403    -1.860264    12.006033    23.792875    -17.442949    12.544863    -20.715586    37.822956    4.649498    3.563608    -16.575148    24.674749    0.000000    0.000000    0.000000    -16.011841    -10.407860    -9.938843    3.336406    36.252762    -5.624488    15.471480    -12.305327    -6.893048    0.000000    0.000000    0.000000    
-0.469475    0.845802    0.241489    -3.982533    -1.215263    -53.889488    -0.822192    3.175511    -7.474245    -4.934419    11.579322    -1.999521    12.546026    11.690098    14.931959    -5.710418    -22.253252    13.118104    -6.212506    20.654697    -10.542461    -17.975323    19.758001    -31.235722    51.248356    3.573954    -62.620647    62.853500    21.301950    -25.883041    3.849332    22.167219    11.720381    32.985046    40.486530    10.379473    1.730709    -5.437671    75.829651    41.709133    -2.193896    12.023077    23.892822    -17.401066    12.499811    -20.769424    37.818043    4.638495    3.411586    -16.597450    24.700632    0.000000    0.000000    0.000000    -15.918163    -10.325398    -10.115308    3.193119    36.216286    -5.424963    15.525889    -12.282550    -6.891545    0.000000    0.000000    0.000000    
-0.470105    0.845932    0.241582    -4.026849    -1.181509    -53.854134    -0.761145    3.247713    -7.533156    -5.001572    11.425490    -2.018734    12.625644    11.685410    14.959809    -5.680714    -22.183474    13.156224    -6.213496    20.695024    -10.395457    -17.953465    19.623163    -31.298702    48.625092    2.438983    -63.690701    60.979866    21.722923    -22.073902    3.801708    22.212894    11.814172    32.892818    40.157181    10.395249    2.376992    -5.085263    76.069962    41.573265    -2.465094    11.769955    23.976458    -17.367273    12.463152    -20.815189    37.819405    4.647996    3.402610    -16.579422    24.714998    0.000000    0.000000    0.000000    -15.834442    -10.204466    -10.154209    3.172042    36.129646    -5.411197    15.505229    -12.273904    -6.873835    0.000000    0.000000    0.000000    
-0.470685    0.846034    0.241658    -4.061841    -1.145991    -53.816010    -0.715682    3.279977    -7.511085    -5.007270    11.344612    -2.014035    12.655649    11.636194    14.933081    -5.650073    -22.127407    13.133967    -6.211409    20.705133    -10.426028    -17.914013    19.119230    -31.457232    50.700672    3.976446    -63.165031    63.064983    21.401617    -26.138704    3.783187    22.215347    11.781885    32.915787    40.546234    10.319639    3.933578    -5.876163    76.790077    38.607372    -5.408388    10.216512    24.032473    -17.346586    12.474098    -20.793476    37.831749    4.566421    3.564232    -16.556023    24.752283    0.000000    0.000000    0.000000    -15.761859    -10.091289    -10.182810    3.175428    36.036705    -5.418073    15.493440    -12.280676    -6.893277    0.000000    0.000000    0.000000    
